<?xml version="1.0" standalone="no"?>
<!DOCTYPE svg PUBLIC "-//W3C//DTD SVG 20010904//EN"
 "http://www.w3.org/TR/2001/REC-SVG-20010904/DTD/svg10.dtd">
<svg version="1.0" xmlns="http://www.w3.org/2000/svg"
 width="280.000000pt" height="280.000000pt" viewBox="0 0 280.000000 280.000000"
 preserveAspectRatio="xMidYMid meet">
<metadata>
Created by potrace 1.14, written by Peter Selinger 2001-2017
</metadata>
<g transform="translate(0.000000,280.000000) scale(0.100000,-0.100000)"
fill="#000000" stroke="none">
<path d="M1539 2615 c-29 -16 -160 -41 -263 -50 -178 -17 -332 -111 -402 -247
-18 -36 -38 -55 -86 -84 -301 -180 -507 -479 -571 -826 -18 -99 -19 -310 -1
-413 70 -401 344 -745 720 -904 251 -107 576 -120 834 -35 427 141 739 503
814 946 23 133 17 340 -14 468 -77 320 -265 581 -544 755 -66 41 -80 55 -102
101 -23 49 -46 74 -157 166 -26 21 -27 26 -17 52 15 39 1 52 -41 37 -44 -15
-51 -14 -44 9 8 24 -9 26 -45 5 -34 -19 -43 -18 -31 4 18 32 -6 40 -50 16z"/>
</g>
</svg>
